<svg xmlns="http://www.w3.org/2000/svg" width="31" height="30" viewBox="0 0 31 30">
    <g fill="none" fill-rule="evenodd">
        <path stroke="#646971" stroke-width="1.5" d="M20.885.75H8.974c-2.908 0-3.973.276-5.04.846-1.007.54-1.799 1.33-2.338 2.339C1.026 5 .75 6.065.75 8.974v12.052c0 2.908.276 3.973.846 5.04.54 1.007 1.33 1.799 2.339 2.338 1.066.57 2.13.846 5.039.846h11.91c2.909 0 3.974-.276 5.04-.846 1.008-.54 1.8-1.33 2.338-2.339.57-1.066.847-2.13.847-5.039V8.974c0-2.908-.277-3.973-.847-5.04-.539-1.007-1.33-1.799-2.338-2.338-1.066-.57-2.131-.846-5.04-.846z" opacity=".5" transform="translate(.807)"/>
        <path fill="#646971" fill-rule="nonzero" d="M14.933 12.132c.313 0 .576-.264.576-.572V9.43l-.044-1.1 1.596 1.707c.102.117.256.176.394.176.299 0 .532-.22.532-.52 0-.154-.065-.271-.175-.381l-2.464-2.388c-.145-.146-.27-.197-.415-.197-.153 0-.277.05-.423.197l-2.464 2.388c-.109.11-.175.227-.175.38 0 .301.219.52.525.52.139 0 .3-.058.401-.175l1.596-1.706-.043 1.098v2.131c0 .308.27.572.583.572zm-4.184 11.125c-1.524 0-2.29-.762-2.29-2.27v-7.164c0-1.508.766-2.27 2.29-2.27h3.433v5.398c0 .403.343.732.75.732.402 0 .744-.33.744-.732v-5.398h3.434c1.523 0 2.289.762 2.289 2.27v7.163c0 1.509-.766 2.27-2.29 2.27h-8.36z" transform="translate(.807)"/>
    </g>
</svg>
